<svg width="192" height="159" xmlns="http://www.w3.org/2000/svg">
 <!-- Created with Method Draw - http://github.com/duopixel/Method-Draw/ -->
 <g>
  <title>background</title>
  <rect fill="none" id="canvas_background" height="161" width="194" y="-1" x="-1"/>
 </g>
 <g>
  <title>Layer 1</title>
  <path stroke="#000" id="svg_4" d="m189.180054,49.220106c-0.027767,-15.325733 -12.439825,-27.743186 -27.760524,-27.764009l0,-0.006941l-85.086456,0c-3.505643,-11.258306 -13.960093,-19.490334 -26.413801,-19.511157l-19.957866,0c-15.327641,0.013882 -27.74664,12.438276 -27.774407,27.764009l0,98.478939c0.027767,15.311851 12.446766,27.729304 27.774407,27.757068l131.465065,0c15.306815,-0.027764 27.732756,-12.445217 27.760524,-27.757068l0,-78.960841l-0.006942,0zm-159.218647,-33.407043l19.957866,0c7.261192,-0.027764 13.307558,5.788796 13.765721,13.02132l0.402628,6.503719l97.33885,0c7.58746,0.013882 13.862907,6.288548 13.876791,13.882004l0,3.435796c-4.102643,-2.394646 -8.802287,-3.866138 -13.883733,-3.873079l-131.465065,0c-5.081446,0.006941 -9.788032,1.485374 -13.883733,3.88002l0,-22.967776c0.020826,-7.593456 6.296273,-13.868122 13.890675,-13.882004zm131.458123,126.242948l-131.458123,0c-7.58746,-0.013882 -13.862907,-6.30243 -13.890675,-13.882004l0,-51.627174l0.006942,0c0.013884,-7.600397 6.289331,-13.875063 13.883733,-13.888945l131.465065,0c7.58746,0.013882 13.821256,6.253843 13.883733,13.819535l0,51.689643c-0.027767,7.600397 -6.303215,13.875063 -13.890675,13.888945z" stroke-opacity="null" stroke-width="0" fill="#ffffff"/>
 </g>
</svg>