<svg width="70" height="157" xmlns="http://www.w3.org/2000/svg">
 <!-- Created with Method Draw - http://github.com/duopixel/Method-Draw/ -->
 <g>
  <title>background</title>
  <rect fill="none" id="canvas_background" height="159" width="72" y="-1" x="-1"/>
 </g>
 <g>
  <title>Layer 1</title>
  <path stroke="#000" id="svg_5" d="m30.09504,155.541698c-12.475842,-1.642771 -19.212014,-16.99912 -6.746092,-22.624406c12.99542,-5.546605 20.724331,14.199102 6.529239,16.129109c-7.772811,2.412104 10.091746,6.451483 13.421383,2.39555c10.40394,-4.171357 8.796788,-15.028187 6.293654,-22.674328c-0.868688,-5.8577 -1.955035,-12.128879 -10.877196,-8.79976c-21.525447,1.434601 -38.567137,-16.65443 -36.855386,-33.576653c0.581147,-15.961419 16.36457,-26.893658 28.051807,-37.977707c-3.836947,-14.500709 -4.995479,-31.253003 6.127467,-43.889264c10.245527,-10.271891 15.445911,8.524832 17.178986,14.903062c3.849603,14.909102 -3.826182,30.576199 -16.598553,41.085854c1.219569,4.985147 2.419522,9.973628 3.66238,14.954835c13.497172,-2.158599 26.380845,7.288723 27.117019,18.35448c2.085527,9.992547 -5.651745,19.429246 -16.220076,23.723757c-0.173779,8.580722 5.550044,17.481498 3.493396,26.342331c-1.975108,9.161311 -14.378378,13.653758 -24.578021,11.653138l-0.000006,0zm14.090593,-39.093773c3.823966,-5.945993 -3.112171,-16.447042 -3.492995,-24.07946c0.149776,-13.309306 -16.893248,2.578145 -11.825021,9.114032c1.502378,3.867443 14.542737,10.959728 2.564134,6.585633c-12.505979,-6.200104 -11.933175,-22.152652 -0.506303,-28.888296c9.586739,-1.759015 3.731522,-12.356004 1.925143,-15.836735c-11.774556,8.888841 -25.120506,20.081672 -23.089857,34.468331c1.529617,13.484549 19.275767,21.664717 34.424899,18.6365l0,-0.000005zm7.922424,-2.573873c11.230142,-5.971936 10.861586,-21.644855 -1.425005,-26.505858c-13.109858,-5.738195 -4.130441,9.294912 -3.89023,15.017045c1.819379,2.190505 0.788774,14.954327 5.315235,11.488813zm-13.840536,-71.841315c6.90796,-6.922283 14.804503,-16.915924 9.953079,-26.068099c-10.447515,-5.712661 -16.25328,9.732318 -16.510221,16.495336c-0.095048,4.385293 -0.875222,19.500648 6.557148,9.572763l0,0l-0.000006,0z" stroke-opacity="null" stroke-width="0" fill="#ffffff"/>
 </g>
</svg>