<svg width="100" height="88" xmlns="http://www.w3.org/2000/svg">
 <!-- Created with Method Draw - http://github.com/duopixel/Method-Draw/ -->
 <g>
  <title>background</title>
  <rect fill="none" id="canvas_background" height="90" width="102" y="-1" x="-1"/>
 </g>
 <g>
  <title>Layer 1</title>
  <g id="svg_10">
   <path transform="translate(14.374858664905616,17.749870147189913) scale(0.005) translate(-14.374858664905616,-17.749870147189913)" id="svg_7" d="m419.165035,740.668423c-0.0098,-5.100304 -4.390542,-9.232752 -9.797868,-9.239682l0,-0.00231l-30.030624,0c-1.23729,-3.746691 -4.92711,-6.486256 -9.322553,-6.493186l-7.043979,0c-5.409776,0.00462 -9.792968,4.139377 -9.802768,9.239682l0,32.77315c0.0098,5.095684 4.392993,9.228132 9.802768,9.237372l46.399606,0c5.402425,-0.00924 9.788068,-4.141687 9.797868,-9.237372l0,-26.277654l-0.00245,0zm-56.195023,-11.117647l7.043979,0c2.562783,-0.00924 4.696802,1.926474 4.858508,4.333411l0.142105,2.164395l34.355015,0c2.677937,0.00462 4.892809,2.092788 4.897709,4.619841l0,1.143411c-1.447997,-0.796923 -3.106701,-1.286626 -4.900159,-1.288936l-46.399606,0c-1.793458,0.00231 -3.454612,0.494323 -4.900159,1.291245l0,-7.643527c0.00735,-2.527053 2.222222,-4.615221 4.902609,-4.619841zm46.397156,42.012832l-46.397156,0c-2.677937,-0.00462 -4.892809,-2.097408 -4.902609,-4.619841l0,-17.181188l0.00245,0c0.0049,-2.529363 2.219772,-4.617531 4.900159,-4.622151l46.399606,0c2.677937,0.00462 4.878108,2.081238 4.900159,4.599051l0,17.201977c-0.0098,2.529363 -2.224672,4.617531 -4.902609,4.622151z" fill-opacity="null" stroke-opacity="null" stroke-width="0" stroke="#ffffff" fill="#ffffff"/>
   <path stroke="#ffffff" id="svg_8" d="m99.216524,27.613555c-0.014663,-8.235125 -6.569185,-14.907516 -14.659693,-14.918705l0,-0.00373l-44.932198,0c-1.851249,-6.049535 -7.372004,-10.472931 -13.94852,-10.48412l-10.539289,0c-8.094174,0.007459 -14.652361,6.68358 -14.667025,14.918705l0,52.916648c0.014663,8.227666 6.572851,14.900057 14.667025,14.914976l69.423673,0c8.083177,-0.014919 14.64503,-6.68731 14.659693,-14.914976l0,-42.428798l-0.003666,0zm-84.0797,-17.950932l10.539289,0c3.834468,-0.014919 7.027415,3.11055 7.26936,6.996873l0.212619,3.494707l51.402405,0c4.006763,0.007459 7.320682,3.379087 7.328014,7.459353l0,1.84619c-2.166511,-1.286738 -4.648285,-2.07743 -7.331679,-2.081159l-69.423673,0c-2.683395,0.00373 -5.168834,0.798151 -7.331679,2.084889l0,-12.341499c0.010998,-4.080266 3.324917,-7.451893 7.335345,-7.459353zm69.420007,67.835353l-69.420007,0c-4.006763,-0.007459 -7.320682,-3.386546 -7.335345,-7.459353l0,-27.741333l0.003666,0c0.007332,-4.083996 3.321251,-7.455623 7.331679,-7.463082l69.423673,0c4.006763,0.007459 7.298687,3.360438 7.331679,7.425786l0,27.7749c-0.014663,4.083996 -3.328582,7.455623 -7.335345,7.463082z" fill-opacity="null" stroke-opacity="null" stroke-width="0" fill="#ffffff"/>
   <text stroke-width="2" stroke="#ffffff" transform="matrix(1.611950929485715,0,0,1.5188632864921487,-17.94979681324311,-20.501193800952493) " xml:space="preserve" text-anchor="start" font-family="Euphoria, sans-serif" font-size="24" id="svg_9" y="59.220082" x="33.536274" fill-opacity="null" fill="#ffffff">S</text>
  </g>
 </g>
</svg>