<svg width="258" height="259" xmlns="http://www.w3.org/2000/svg">
 <!-- Created with Method Draw - http://github.com/duopixel/Method-Draw/ -->
 <g>
  <title>background</title>
  <rect fill="none" id="canvas_background" height="261" width="260" y="-1" x="-1"/>
  <g display="none" overflow="visible" y="0" x="0" height="100%" width="100%" id="canvasGrid">
   <rect fill="url(#gridpattern)" stroke-width="0" y="0" x="0" height="100%" width="100%"/>
  </g>
 </g>
 <g>
  <title>Layer 1</title>
  <path stroke="#000" id="svg_4" d="m137.97994,120.230914c-5.162294,-9.359638 -11.477992,-16.937242 -17.813087,-22.238071c-7.392061,5.433379 -16.39519,8.741905 -26.210353,8.741905c-9.834434,0 -18.850515,-3.314973 -26.229542,-8.741905c-6.33508,5.300828 -12.657231,12.878433 -17.832195,22.238071c-12.012899,21.730396 -13.334024,44.020239 -2.958246,49.799699c4.646711,2.603462 9.518721,0.662992 14.552058,-4.204486c-0.882916,4.935316 -1.398522,10.284559 -1.398522,15.879718c0,24.85786 9.621916,44.993762 21.479881,44.993762c7.147194,0 10.685268,-7.331934 12.386566,-18.557682c1.695023,11.225748 5.233067,18.557682 12.354359,18.557682c11.877451,0 21.499456,-20.135902 21.499456,-44.993762c0,-5.595166 -0.515776,-10.944402 -1.417882,-15.879718c5.046111,4.867478 9.911711,6.807948 14.571322,4.204486c10.369392,-5.779459 9.028758,-28.06931 -2.983807,-49.799699l-0.000007,0zm-44.036124,-21.976126c19.952424,0 36.134882,-16.241924 36.134882,-36.277557s-16.182458,-36.277602 -36.134882,-36.277602c-19.959211,0 -36.15445,16.245156 -36.15445,36.277602s16.195238,36.277557 36.15445,36.277557z" fill-opacity="null" stroke-opacity="null" stroke-width="0" fill="#fff"/>
  <text stroke="#ffffff" transform="rotate(-175.390869140625 194.8979949951172,123.27396392822267) matrix(6.466657014178766,0,0,6.638814331125918,-677.2597467498945,-1181.2007061204954) " xml:space="preserve" text-anchor="start" font-family="Helvetica, Arial, sans-serif" font-size="24" id="svg_7" y="204.179989" x="127.610831" fill="#ffffff">¿</text>
 </g>
</svg>